<?xml version="1.0" encoding="UTF-8"?>
<svg width="84px" height="111px" viewBox="0 0 84 111" version="1.1" xmlns="http://www.w3.org/2000/svg" xmlns:xlink="http://www.w3.org/1999/xlink">
    <!-- Generator: Sketch 61.2 (89653) - https://sketch.com -->
    <title>Group 2</title>
    <desc>Created with Sketch.</desc>
    <defs>
        <polygon id="path-1" points="0.875407332 0.69213913 82.7110357 0.69213913 82.7110357 43.826087 0.875407332 43.826087"></polygon>
        <polygon id="path-3" points="0 0.390226087 86 0.390226087 86 44.3900522 0 44.3900522"></polygon>
    </defs>
    <g id="Headshots" stroke="none" stroke-width="1" fill="none" fill-rule="evenodd">
        <g id="Group-2" transform="translate(0.000000, 1.000000)">
            <path d="M58.0685615,29 C55.8222732,29.0360704 54.0124937,32.2066576 54,36.0752068 C53.9958648,38.2971428 54.5792624,40.3315127 55.6033259,41.655296 C56.2920399,42.5444311 57.1456572,43.0548271 57.9687881,42.995311 C60.1804329,42.9592406 61.9902123,39.7868498 61.9999125,35.9237112 C62.008227,33.6981682 61.4234437,31.6656018 60.3993801,30.3382114 C59.7175949,29.461701 58.9138644,29 58.0685615,29 L58.0685615,29 Z M57.940507,45 C56.820268,45 55.7291425,44.3209951 54.8633307,43.0831311 C53.6709407,41.3865291 52.9924682,38.8325243 53,36.0709951 C53.013987,31.1140777 55.2620598,27.0436893 58.0139238,27 C59.1746687,27.0546117 60.2594651,27.660801 61.1392008,28.9132282 C62.330325,30.6116505 63.0075316,33.1692961 63,35.9326456 C62.9885445,40.8841019 60.7392059,44.9544903 57.9886077,45 L57.940507,45 Z" id="Fill-15" fill="#0959A7"></path>
            <g id="Group-3" transform="translate(0.000000, 64.968070)">
                <mask id="mask-2" fill="white">
                    <use xlink:href="#path-1"></use>
                </mask>
                <g id="Clip-2"></g>
                <path d="M82.7110357,43.8264 L82.7110357,30.2027478 C82.7110357,17.4759652 81.0427322,11.5077913 65.0483861,7.06413913 L41.7923997,0.69213913 L18.538057,7.06413913 C2.54371083,11.5077913 0.875407332,17.4759652 0.875407332,30.2027478 L0.875407332,43.7168348 L82.7110357,43.8264 Z" id="Fill-1" fill="#A5D1F5" mask="url(#mask-2)"></path>
            </g>
            <g id="Group-6" transform="translate(0.000000, 64.000000)">
                <mask id="mask-4" fill="white">
                    <use xlink:href="#path-3"></use>
                </mask>
                <g id="Clip-5"></g>
                <path d="M83.9998435,44.3900522 L82.2423416,44.3900522 L82.2423416,30.7679652 C82.2423416,18.2556174 80.6946168,12.7319652 65.1232163,8.42918261 L41.9998435,2.12605217 L18.8715153,8.42918261 C3.30507021,12.7319652 1.75899713,18.2556174 1.75899713,30.7679652 L1.75899713,44.280487 L-0.000156521739,44.280487 L-0.000156521739,30.7679652 C-0.000156521739,17.9488348 1.81350612,11.4093565 18.3825862,6.82796522 L41.9998435,0.390226087 L65.6137971,6.82796522 C82.1861808,11.4093565 83.9998435,17.9488348 83.9998435,30.7679652 L83.9998435,44.3900522 Z" id="Fill-4" fill="#0959A7" mask="url(#mask-4)"></path>
            </g>
            <path d="M40.2804,80.7366957 C40.2804,80.7366957 51.4748348,75.742087 51.4998783,69.5626087 L51.6219926,39.0753043 C51.6297913,36.8417391 49.9565739,35.033913 47.898313,35.0571652 L32.9410957,35.2405217 C30.8828348,35.264 29.1924,37.114087 29.1830087,39.3492174 L29.0624398,69.4733913 C29.0358783,75.6857391 40.2804,80.7366957 40.2804,80.7366957" id="Fill-7" fill="#FFFFFF"></path>
            <path d="M48.9383826,35.8896174 C48.9070783,35.8896174 33.9514261,36.0711826 33.9514261,36.0711826 C32.3392522,36.0915304 31.0229043,37.5612696 31.0166435,39.350313 L30.8945257,69.4791826 C30.8773391,73.9588348 38.0789043,78.3085739 41.2782087,79.8158783 C43.0969913,78.942487 51.6446435,74.5614435 51.6665565,69.5590087 L51.7886644,39.0717043 C51.7917739,38.1654435 51.4442957,37.2998783 50.8338609,36.6957043 C50.3110783,36.174487 49.6380348,35.8896174 48.9383826,35.8896174 M41.2797739,81.570487 C41.1623826,81.570487 41.0481217,81.5454435 40.9401217,81.4969217 C40.4611652,81.2809217 29.2025565,76.1485739 29.2275583,69.4713565 L29.349687,39.3440522 C29.3606435,36.6534435 31.4157739,34.4386609 33.9279478,34.4057913 L48.8882957,34.2242261 C50.0809913,34.2242261 51.1703826,34.6797043 52.0077739,35.5108348 C52.9312522,36.4280522 53.4587304,37.730313 53.4540659,39.0779652 L53.333513,69.5684 C53.3037739,76.2049217 42.0968174,81.2856174 41.6209913,81.498487 C41.5129913,81.5454435 41.3956,81.570487 41.2797739,81.570487" id="Fill-9" fill="#0959A7"></path>
            <path d="M33.3015478,87.8581217 C33.1747652,87.8581217 33.0448522,87.8268174 32.9243304,87.7657739 C21.5718087,81.9948174 23.6707652,70.687687 23.6926783,70.5734261 L25.3283304,70.8974261 C25.2469391,71.3028174 23.539287,80.7363826 33.1293739,85.9939478 L39.3589391,79.3308174 L40.5735478,80.4671652 L33.9104174,87.5936 C33.7492,87.7657739 33.5285043,87.8581217 33.3015478,87.8581217" id="Fill-11" fill="#0959A7"></path>
            <path d="M49.3785217,87.9972696 C49.1515652,87.9972696 48.9308696,87.9049217 48.7696522,87.7327478 L42.1065217,80.606313 L43.3211304,79.4699652 L49.5506957,86.1299652 C59.1752174,80.850487 57.3705217,71.138313 57.3533043,71.0381391 L58.9889565,70.7125739 C59.0093043,70.8268348 61.1098261,82.1339652 49.7557391,87.9049217 C49.6367826,87.9659652 49.5068696,87.9972696 49.3785217,87.9972696" id="Fill-13" fill="#0959A7"></path>
            <path d="M24.5771684,28 C22.048539,28.0386598 20.0140993,31.4368557 20,35.5850515 C19.9922739,37.9645619 20.648595,40.1430412 21.8006648,41.5618557 C22.5785847,42.5186856 23.4952518,42.9362113 24.4649235,43 C26.9530199,42.9613402 28.9890186,39.5612113 29,35.4207474 C29.0077261,33.0354381 28.351405,30.8569588 27.1977763,29.4362113 C26.432328,28.4967784 25.5265736,28 24.5771684,28 L24.5771684,28 Z M24.9293883,45 C23.585269,45 22.2730442,44.2832763 21.2311619,42.9766486 C19.8035098,41.1838786 18.9909632,38.4879983 19,35.5730657 C19.0167824,30.3427121 21.7156523,26.0481344 25.0159587,26 C26.3676718,25.9904891 27.711791,26.6976052 28.7673423,28.019605 C30.1965132,29.816218 31.007541,32.5140198 31,35.4289524 C30.9862781,40.655463 28.2858894,44.9519622 24.9855831,45 L24.9293883,45 Z" id="Fill-17" fill="#0959A7"></path>
            <path d="M40.0998616,0.82893913 C37.7066718,0.82893913 35.3151817,1.26094125 33.04947,2.12494549 C29.2931138,3.55564453 26.1010609,6.19036469 24.2772735,9.67430575 C22.366801,13.3274339 21.234795,17.6490977 21.2175922,22.2910673 L23,41.2186735 C22.947309,54.1491705 31.2440116,63.1182667 41.6122345,63 C41.6785232,63 39.3298359,62.285334 39.3978242,62.2836914 C39.4641129,62.285334 40.0318733,62.2836914 40.0998616,62.2836914 C44.6855619,62.3359989 49.1504372,61.4883701 52.4575195,58.5852051 C56.6277177,54.9243427 59.0851511,48.4302172 59.0567125,41.2186735 L58.9802256,22.2910673 C58.9632285,17.6490977 57.8329222,13.3274339 55.92075,9.67430575 C54.0969626,6.19036469 50.9066094,3.55564453 47.1485535,2.12494549" id="Fill-19" fill="#FFFFFF"></path>
            <path d="M41.0008344,4 C38.701185,4 36.4455966,4.39428181 34.3018556,5.17502239 C30.6363127,6.50963504 27.6977777,8.92226423 26.0319299,11.966996 C24.115273,15.4654648 23.0933948,19.4927719 23.0764483,23.6139556 L23,41.6413964 C22.9747689,48.377044 25.5184489,54.585418 29.9821752,58.6753095 C33.0715347,61.504125 36.7489402,62.9951987 40.6246206,62.9951987 L40.7890023,62.9951987 C40.8059489,62.9951987 41.012697,62.9920695 41.0347275,62.9920695 C45.1476599,63.126626 48.8843783,61.5432403 52.017799,58.6753095 C56.4832199,54.585418 59.0268999,48.377044 59,41.6413964 L58.9252205,23.612391 C58.9082739,19.4927719 57.8847012,15.4654648 55.9680442,11.966996 C54.3038911,8.92226423 51.3636614,6.50963504 47.6981185,5.17502239 C45.5543775,4.39428181 43.2987892,4 41.0008344,4 L41.0008344,4 Z M40.6089544,64 C36.2141842,64 32.0607155,62.3516475 28.5917906,59.2199335 C23.738376,54.8414486 20.9728197,48.237143 21,41.0942823 L21.0772126,23.1585263 C21.0960375,18.8033892 22.1981528,14.5416431 24.2586292,10.8309044 C26.1428356,7.44080839 29.4474701,4.75892801 33.5667116,3.28179251 C38.3294241,1.57273583 43.6722873,1.57273583 48.4332884,3.28179251 C52.5525299,4.75892801 55.8571644,7.44080839 57.7430821,10.8309044 C59.8035585,14.5416431 60.9039625,18.8033892 60.9244988,23.1569698 L61,41.0942823 C61.0271803,48.237143 58.261624,54.8414486 53.4099208,59.2199335 C49.9392845,62.3485345 45.7841045,64 41.3807774,64 L41.1891052,64 L40.7989153,64 L40.6089544,64 Z" id="Fill-21" fill="#0959A7"></path>
            <path d="M28.829913,31.8878261 C28.8033043,33.1650435 29.6375652,34.22 30.6893913,34.241913 C31.7427826,34.2638261 32.6177391,33.2433043 32.6443478,31.966087 C32.6693913,30.6857391 31.8382609,29.6323478 30.7848696,29.6104348 C29.729913,29.5885217 28.8565217,30.6090435 28.829913,31.8878261" id="Fill-29" fill="#0959A7"></path>
            <path d="M42.2671478,50.9883304 C42.8181043,50.7598087 43.2720174,50.4812 43.5960174,50.2166783 C43.9857565,49.9036348 44.0452348,49.343287 43.7306261,48.9692 C43.4191478,48.5998087 42.8478435,48.5497217 42.4628,48.8612 C42.3563652,48.9410261 39.8238435,50.8897217 36.8561913,48.6060696 C36.464887,48.307113 35.9014087,48.3806783 35.5789739,48.7657217 C35.2643652,49.1523304 35.3238435,49.711113 35.7135826,50.0100696 C38.1803652,51.9039826 40.6424522,51.6645043 42.2671478,50.9883304" id="Fill-31" fill="#0959A7"></path>
            <path d="M47.5237739,31.8588696 C47.4971652,33.1376522 48.3298609,34.1926087 49.381687,34.2145217 C50.4350783,34.2364348 51.3116,33.215913 51.3382087,31.9371304 C51.3632522,30.6583478 50.5305565,29.6049565 49.4771652,29.5830435 C48.4237739,29.5611304 47.5503826,30.5816522 47.5237739,31.8588696" id="Fill-33" fill="#0959A7"></path>
            <path d="M38.9349565,44.6221217 L41.5692174,44.6769043 C42.1921739,44.6894261 42.7775652,44.4296 43.1782609,43.9647304 C43.5758261,43.5029913 43.7307826,42.895687 43.6024348,42.3071652 C42.8091977,39.6408411 42.31056,37.8281172 42.1065217,36.8689936 C41.7178644,35.0420302 41.3274586,32.6756237 40.9353043,29.7697739 C40.8366957,29.2939478 40.3686957,28.971513 39.8615652,29.0826435 C39.3685217,29.179687 39.053913,29.6461217 39.1556522,30.123513 L41.8227826,42.6609043 L41.6036522,42.9129043 L38.9693913,42.859687 C38.4685217,42.8487304 38.0537391,43.2353391 38.0427826,43.7221217 C38.0333913,44.2089043 38.4325217,44.6127304 38.9349565,44.6221217" id="Fill-35" fill="#0959A7"></path>
            <path d="M26.3276,28.6518957 C26.1569913,28.633113 25.9910783,28.5595478 25.8596,28.4327652 C25.5449913,28.1275478 25.5371652,27.625113 25.8423826,27.3089391 C25.8830783,27.2682435 29.7601217,23.3645913 34.5809913,27.3308522 C34.9222087,27.6094609 34.9691652,28.1103304 34.6921217,28.4499826 C34.4119478,28.7927652 33.9079478,28.8350261 33.5729913,28.5579826 C29.8618609,25.5167652 27.1023826,28.2950261 26.9849913,28.4155478 C26.8065565,28.5986783 26.5623826,28.6785043 26.3276,28.6518957" id="Fill-37" fill="#0959A7"></path>
            <path d="M45.6941913,28.5601739 C45.5251478,28.5413913 45.3592348,28.4678261 45.2261913,28.3394783 C44.9115826,28.0342609 44.9037565,27.5318261 45.2089739,27.2156522 C45.2496696,27.1765217 49.126713,23.2713043 53.9475826,27.2375652 C54.2888,27.5177391 54.3357565,28.0186087 54.058713,28.3582609 C53.7785391,28.6994783 53.2745391,28.7417391 52.9395826,28.4662609 C49.2300174,25.4234783 46.4689739,28.2017391 46.3515826,28.3238261 C46.1731478,28.5053913 45.9289739,28.5867826 45.6941913,28.5601739" id="Fill-39" fill="#0959A7"></path>
            <path d="M39.7756348,54.2809217 C38.8881565,54.2809217 38.1728522,53.9725739 38.1258957,53.9506609 C37.847287,53.8270087 37.7189391,53.5014435 37.8425913,53.2212696 C37.9646783,52.9426609 38.2855478,52.8127478 38.5719826,52.9348348 C38.5845043,52.9426609 39.8319826,53.4685739 40.7820696,52.9270087 C41.0450261,52.7736174 41.3862435,52.8675304 41.5380696,53.1336174 C41.6914609,53.4012696 41.599113,53.7377913 41.3330261,53.8896174 C40.8180696,54.1838783 40.2686783,54.2809217 39.7756348,54.2809217" id="Fill-41" fill="#0959A7"></path>
            <path d="M48.3567826,49.4522261 C48.0813043,49.4522261 47.8418261,49.2471826 47.8042609,48.9670087 C47.4802609,46.4204 44.7364348,44.1210957 44.7098261,44.0960522 C44.4750435,43.9004 44.4406087,43.5497913 44.6362609,43.3150087 C44.8366087,43.0786609 45.1872174,43.0489217 45.4173043,43.2414435 C45.5456522,43.346313 48.5258261,45.8490957 48.9077391,48.8261391 C48.9468696,49.1313565 48.7308696,49.4084 48.4287826,49.4475304 C48.4021739,49.4490957 48.3802609,49.4522261 48.3567826,49.4522261" id="Fill-43" fill="#0959A7"></path>
            <path d="M31.3198609,49.7289565 C30.9442087,49.6866957 30.7297739,49.408087 30.7673391,49.1028696 C31.1508174,46.1258261 34.1309913,43.6246087 34.2593391,43.5181739 C34.4862957,43.3209565 34.8400348,43.3569565 35.0403826,43.5901739 C35.2344696,43.8265217 35.2016,44.1786957 34.9683826,44.3743478 C34.9402087,44.3978261 32.1963826,46.7049565 31.8708174,49.2453043 C31.8332522,49.5254783 31.5953391,49.7289565 31.3198609,49.7289565" id="Fill-45" fill="#0959A7"></path>
            <path d="M41.3241043,22.5714957 C39.9874087,22.4556696 38.7211478,22.4337565 37.5018435,22.5041913 C37.246713,22.4885391 36.9336696,22.2866261 36.9164522,21.9782783 C36.8992348,21.6730609 37.1324522,21.4101043 37.4423652,21.392887 C38.7039304,21.320887 40.0343652,21.3428 41.3710609,21.4617565 C41.6778435,21.4883652 41.9032348,21.7560174 41.8781913,22.0643652 C41.8515826,22.3539304 41.6105391,22.5714957 41.3241043,22.5714957" id="Fill-47" fill="#0959A7"></path>
            <path d="M46.1695478,18.7011826 C46.1178957,18.7011826 46.0646783,18.6949217 46.0083304,18.6761391 C45.9410261,18.6557913 39.1025913,16.6335304 32.6820696,18.6135304 C32.3909391,18.696487 32.0778957,18.5384 31.987113,18.2457043 C31.8994609,17.9514435 32.0638087,17.6415304 32.3565043,17.552313 C39.107287,15.4752696 46.0380696,17.5257043 46.3307652,17.6149217 C46.6234609,17.7025739 46.7893739,18.0140522 46.7017217,18.3067478 C46.6297217,18.5462261 46.4074609,18.7011826 46.1695478,18.7011826" id="Fill-49" fill="#0959A7"></path>
            <path d="M21.2446289,31.3540039 C24.5851162,23.4226888 25.8369028,17.7288411 24.9999888,14.2724609 C23.7446177,9.08789063 29.5893946,9.0674341 31.9635513,7.21386719 C33.5463224,5.97815592 35.2643639,4.72066894 37.1176758,3.44140625 C37.7861438,4.72021245 38.5283684,5.6756161 39.3443494,6.30761719 C40.1603304,6.93961828 41.2328845,7.38981359 42.5620117,7.65820313 C43.8767308,7.87154006 44.977154,7.87154006 45.8632813,7.65820312 C46.7494085,7.44486619 47.5189398,6.99467087 48.171875,6.30761719 L51.5444336,4.86230469 L50.1259766,7.65820313 L51.5444336,10.378418 C53.7371419,11.7866211 54.8334961,12.4907227 54.8334961,12.4907227 C54.8334961,12.4907227 55.0833333,14.3585612 55.5830078,18.0942383 C55.0833333,22.0030924 54.8334961,23.9575195 54.8334961,23.9575195 C54.8334961,23.9575195 55.5830078,26.3564453 55.5830078,27.4086914 C55.5830078,28.1101888 56.1313477,29.425293 57.2280273,31.3540039 C58.1635742,30.1560872 58.6313477,29.5571289 58.6313477,29.5571289 C58.6313477,29.5571289 59.8081055,27.3125 59.8081055,26.6601562 C59.8081055,26.0078125 61.0073242,24.6191406 61.0073242,23.9575195 C61.0073242,23.2958984 59.8081055,22.2963867 59.8081055,21.6572266 C59.8081055,21.0180664 59.8081055,22.1835937 59.8081055,19.4570312 C59.8081055,16.7304687 58.6088867,16.4692383 59.8081055,15.7016602 C61.0073242,14.934082 62.206543,14.5024414 61.0073242,13.496582 C59.8081055,12.4907227 58.6313477,11.1894531 58.6313477,9.42382812 C58.6313477,8.24674479 57.3653971,6.97200521 54.8334961,5.59960937 L53.3183594,2.53027344 L51.5444336,3.44140625 L48.171875,2.53027344 L44.7680664,0.732910156 C42.5072849,0.244303385 41.1451429,-5.68434189e-14 40.6816406,-5.68434189e-14 C39.9863871,-5.68434189e-14 31.0258789,1.49658203 31.0258789,1.49658203 C31.0258789,1.49658203 25.2470703,4.89160156 25.2470703,5.59960937 C25.2470703,6.07161458 23.9129232,7.34635417 21.2446289,9.42382812 C19.081543,11.7198893 18,13.3361003 18,14.2724609 C18,15.677002 19.2226562,20.3076172 19.2226562,20.9824219 C19.2226563,21.6572266 19.2226562,24.0058594 19.2226562,25.3330078 C19.2226563,26.2177734 19.8966471,28.2247721 21.2446289,31.3540039 Z" id="Line-18" stroke="#0959A7" stroke-width="1.5" fill="#FFFFFF" stroke-linecap="round" stroke-linejoin="round"></path>
            <line x1="44.5" y1="83.5" x2="44.5" y2="108.5" id="Line-7" stroke="#0959A7" stroke-width="1.5" stroke-linecap="round" stroke-linejoin="round"></line>
            <line x1="37.5" y1="83.5" x2="37.5" y2="108.5" id="Line-7" stroke="#0959A7" stroke-width="1.5" stroke-linecap="round" stroke-linejoin="round"></line>
            <line x1="12" y1="93" x2="11.5" y2="108.5" id="Line-7-Copy" stroke="#0959A7" stroke-width="1.5" stroke-linecap="round" stroke-linejoin="round"></line>
            <line x1="72" y1="93" x2="71.5" y2="108.5" id="Line-7-Copy" stroke="#0959A7" stroke-width="1.5" stroke-linecap="round" stroke-linejoin="round" transform="translate(71.500000, 100.500000) scale(-1, 1) translate(-71.500000, -100.500000) "></line>
            <circle id="Oval" fill="#0959A7" cx="41" cy="92" r="1"></circle>
            <circle id="Oval" fill="#0959A7" cx="41" cy="102" r="1"></circle>
            <circle id="Oval" fill="#0959A7" cx="32" cy="82" r="1"></circle>
            <circle id="Oval" fill="#0959A7" cx="52" cy="82" r="1"></circle>
        </g>
    </g>
</svg>