<?xml version="1.0" encoding="UTF-8"?>
<svg width="46px" height="46px" viewBox="0 0 46 46" version="1.1" xmlns="http://www.w3.org/2000/svg" xmlns:xlink="http://www.w3.org/1999/xlink">
    <!-- Generator: Sketch 61.2 (89653) - https://sketch.com -->
    <title>normal-x-button</title>
    <desc>Created with Sketch.</desc>
    <g id="Icons" stroke="none" stroke-width="1" fill="none" fill-rule="evenodd">
        <g id="normal-x-button">
            <rect id="Rectangle" fill="#FFFFFF" x="0" y="0" width="46" height="46" rx="23"></rect>
            <path d="M21.5858574,23 L12.2930405,13.7072338 C11.9023198,13.3165152 11.9023198,12.6833975 12.2930405,12.2926789 C12.6837612,11.9024404 13.3164024,11.9024404 13.7071231,12.2926789 L22.99994,21.5859251 L32.2932369,12.2926789 C32.6834776,11.9024404 33.3165988,11.9024404 33.7073195,12.2926789 C34.0975602,12.6833975 34.0975602,13.3165152 33.7073195,13.7072338 L24.4145026,23 L33.7073195,32.2927662 C34.0975602,32.6834848 34.0975602,33.3166025 33.7073195,33.7073211 C33.3165988,34.0975596 32.6834776,34.0975596 32.2932369,33.7073211 L22.99994,24.4140749 L13.7071231,33.7073211 C13.3164024,34.0975596 12.6837612,34.0975596 12.2930405,33.7073211 C11.9023198,33.3166025 11.9023198,32.6834848 12.2930405,32.2927662 L21.5858574,23 Z" id="x-icon-black-copy" fill="#000000"></path>
        </g>
    </g>
</svg>