<?xml version="1.0" encoding="UTF-8"?>
<svg width="97px" height="150px" viewBox="0 0 97 150" version="1.1" xmlns="http://www.w3.org/2000/svg" xmlns:xlink="http://www.w3.org/1999/xlink">
    <!-- Generator: Sketch 61.2 (89653) - https://sketch.com -->
    <title>Group 8</title>
    <desc>Created with Sketch.</desc>
    <g id="Headshots" stroke="none" stroke-width="1" fill="none" fill-rule="evenodd">
        <g id="Group-8" transform="translate(0.000000, 1.000000)">
            <path d="M68.6903427,39.9966219 C65.569701,40.0303993 63.0601209,43.3312056 63.0446639,47.3563502 C63.0351404,49.6663516 63.8460461,51.7849475 65.2680134,53.1641929 C66.2230373,54.0893194 67.3951996,54.635388 68.5462244,54.5584505 C71.6149835,54.52092 74.1245636,51.2201137 74.1380991,47.1968456 C74.1476225,44.8812146 73.3367169,42.7663717 71.9166712,41.3871264 C70.9731767,40.4770121 69.8605834,39.9966219 68.6903427,39.9966219 L68.6903427,39.9966219 Z M68.5001066,56.5531958 C66.7995106,56.5531958 65.1431108,55.8551288 63.8268303,54.5790922 C62.018626,52.8301716 60.9886605,50.1936549 61.0000942,47.3488441 C61.0213273,42.2390684 64.4359704,38.0487896 68.611558,38 C70.3621151,38 72.0223579,38.6774253 73.3559326,39.968474 C75.164137,41.7211477 76.196024,44.3576643 76.1827029,47.2043517 C76.1633572,52.3122509 72.7487142,56.5081592 68.5712049,56.5531958 L68.5001066,56.5531958 Z" id="Fill-13" fill="#0959A7"></path>
            <path d="M29.6864993,39.9991011 C26.5697007,40.0366217 24.0601206,43.3346836 24.0446936,47.3606455 C24.0370617,49.6700392 24.8441242,51.7862019 26.2660915,53.1632084 C27.2230371,54.0880915 28.4163366,54.6115041 29.5462242,54.5570992 C32.6149833,54.5195785 35.1245634,51.2196406 35.1380989,47.2011829 C35.1476223,44.886161 34.3367167,42.7718744 32.9185925,41.3929919 C31.975098,40.481241 30.8586615,39.9991011 29.6864993,39.9991011 L29.6864993,39.9991011 Z M29.5001063,56.5531958 C27.7995103,56.5531958 26.1431105,55.8534364 24.8249084,54.5796115 C23.0205472,52.8311509 21.9886602,50.1953278 22.000094,47.3512653 C22.021327,42.2428338 25.43597,38.0499052 29.6134794,38.0030045 L29.6250088,39.0010528 L29.6134794,38.0030045 C31.4197621,37.9467235 33.0242793,38.6840036 34.3597756,39.9747127 C36.1641368,41.7250493 37.1960239,44.3608724 37.1827027,47.208687 C37.1633571,52.3114904 33.748714,56.506295 29.5712047,56.5531958 L29.5001063,56.5531958 Z" id="Fill-15" fill="#0959A7"></path>
            <path d="M41.9261191,14 C34.5861974,14 28.4924,19.6687543 27.9626328,26.9895323 C26.5704179,46.2282785 25.8740234,58.4168108 25.8740234,63.5185547 C25.8740234,65.0815336 25.9397528,66.6368939 26.0712041,68.1847113 C26.6866392,75.4313609 32.7482544,81.0000022 40.0209899,81 L58.9225265,81 C66.1341214,81 72.1658692,75.5217948 72.8579149,68.3434825 C73.0447028,66.4060115 73.1380991,64.4597672 73.1380991,62.5046387 C73.1380991,57.186326 72.4501375,45.3255166 71.0745553,26.9546292 C70.5274937,19.6486266 64.4400928,13.9999991 57.1136375,14 L41.9261191,14 Z" id="Rectangle" stroke="#0959A7" stroke-width="2" fill="#FFFFFF"></path>
            <path d="M97,147.781464 L94.9704639,147.781464 L94.9704639,131.425731 C94.9704639,116.278866 93.183175,109.590296 75.2034688,104.383443 L48.4990463,96.7512729 L21.7927163,104.383443 C3.81682497,109.590296 2.02953611,116.278866 2.02953611,131.425731 L2.02953611,147.781464 L7.10542736e-15,147.781464 L7.10542736e-15,131.425731 C7.10542736e-15,115.909384 2.09438971,107.987313 21.2281085,102.445084 L48.4990463,94.6518577 L75.7680766,102.445084 C94.9056103,107.991103 97,115.909384 97,131.425731 L97,147.781464 Z" id="Fill-5" fill="#0959A7"></path>
            <path d="M48.8487384,114.891708 C56.2407725,114.891708 62.2412989,108.806086 62.271264,101.276774 L62.4173913,64.1298812 C62.4285812,61.4065131 60.4246601,59.2037889 57.9618973,59.2321202 L40.0651964,59.457436 C37.6043064,59.4860428 35.581657,61.7402592 35.5704201,64.4617202 L35.426087,101.168068 C35.3943747,108.73743 41.4136293,114.891708 48.8487384,114.891708" id="Fill-9" fill="#FFFFFF"></path>
            <path d="M57.7559158,60.4064758 C57.7177669,60.4064758 39.4902213,60.6263872 39.4902213,60.6263872 C37.5293677,60.6510324 35.9252064,62.4311769 35.9156691,64.598062 L35.7686948,101.086285 C35.7554437,104.453203 37.0658585,107.624856 39.4577947,110.013548 C41.8497309,112.40224 45.0351643,113.716021 48.4246942,113.716021 C55.3754243,113.716021 61.0538884,108.095011 61.0825001,101.186761 L61.2313064,64.2568203 C61.2350957,63.1629509 60.8116429,62.1126846 60.0696467,61.3828064 C59.4306526,60.7515091 58.6104512,60.4064758 57.7559158,60.4064758 M48.4246942,115.735035 C44.4915424,115.735035 40.7949138,114.20703 38.0195811,111.437284 C35.242341,108.665643 33.7221072,104.987815 33.7391304,101.07491 L33.8861475,64.5885831 C33.8994996,61.3297243 36.4020676,58.6490808 39.4654245,58.6092692 L57.6948775,58.3887931 C58.9881253,58.3685042 60.4625804,58.9258657 61.4983231,59.949591 C62.6256232,61.0605225 63.2684322,62.6340261 63.2608696,64.2662992 L63.1120217,101.19624 C63.0795951,109.21163 56.4912797,115.735035 48.4246942,115.735035" id="Fill-11" fill="#0959A7"></path>
            <path d="M33.3173913,101.820138 C33.6861202,109.022971 34.6701781,114.223488 36.2695652,117.421689 C37.8689523,120.61989 41.6646045,124.97708 47.6565217,130.493259" id="Line-14" stroke="#0959A7" stroke-width="2" stroke-linecap="square"></path>
            <path d="M67.0565217,101.820138 C65.382989,109.517101 63.4412505,114.998728 61.2313064,118.265016 C59.0213622,121.531304 54.496434,125.607385 47.6565217,130.493259" id="Line-14" stroke="#0959A7" stroke-width="2" stroke-linecap="square"></path>
            <line x1="47.8533333" y1="147.706422" x2="47.6565217" y2="130.493259" id="Line-14" stroke="#0959A7" stroke-width="2" stroke-linecap="square"></line>
            <path d="M42.9008852,56.7222264 C22.1167641,55.716914 22.134505,86.4440355 45.8635316,91.1187108 C72.9200491,96.4489098 71.3363408,70.5845084 68.8932087,65.5456047 C66.1253538,59.8369677 61.0627913,55.5726977 59.7104555,54.801328 C55.1203154,52.1831212 50.1803851,58.2095617 45.1445375,57.2930272 L42.9008852,56.7222264 Z" id="Path-3" stroke="#0959A7" stroke-width="2" fill="#FFFFFF" transform="translate(48.904314, 72.987560) rotate(7.000000) translate(-48.904314, -72.987560) "></path>
            <g id="Group-7" transform="translate(37.693316, 59.000000)" stroke="#0959A7" stroke-linecap="round" stroke-linejoin="round" stroke-width="2">
                <path d="M0.306683501,-2.42028619e-14 C2.88191533,1.34570313 6.47175908,2.01855469 11.0762148,2.01855469 C15.6806704,2.01855469 19.42416,1.34570313 22.3066835,-2.42028619e-14" id="Line-19"></path>
                <path d="M1.42108547e-14,2.22044605e-14 C2.7796875,6.02473958 6.47175908,9.03710938 11.0762148,9.03710938 C15.6806704,9.03710938 19.42416,6.02473958 22.3066835,2.22044605e-14" id="Line-19"></path>
                <path d="M2.13554092,2.00927734 L3.3066835,5 C5.14452027,5 7.64452046,5 10.8066841,5 C13.9688477,5 16.3554035,5 17.9663515,5 L19.3066835,5 L20.0415468,2.00927734" id="Line-20"></path>
            </g>
            <path d="M33.0717773,39.6494141 C34.9201066,39.4350055 25.9741589,24.2939453 35.1380989,21.9223633 C44.3020389,19.5507813 40.956574,29.2192383 50,29.2192383 C58.2173913,29.2192383 61.9169508,19.6153641 67.0565217,20.5332031 C69.892629,21.0396831 70.0086957,23.547208 70.0086957,29.2192383 C70.0086957,33.6401367 69.4796358,35.7727125 68.5914151,39.9991011 C68.0214712,42.7110451 66.8480413,44.6023077 67.4853516,45.0664063 C75.3848625,50.8189443 80.9746356,38.0421991 79.1523438,25.0731566 C78.5394858,20.7115165 81.7705914,13.637207 74.9267578,11.3554688 C63.072108,7.40312129 61.9921522,1.42108547e-14 48,1.42108547e-14 C35.1380989,1.42108547e-14 33.9371144,7.15527344 27.8347826,12.1503906 C22.7320415,16.3272841 23.4981357,18.1967526 22,25.8178711 C19.9714336,36.1373271 30.020662,59.7139338 31.8833008,46 C30.1826559,42.0554629 30.5788147,39.9386009 33.0717773,39.6494141 Z" id="Path-4" stroke="#0959A7" stroke-width="2" fill="#FFFFFF"></path>
            <g id="Group-4" transform="translate(43.000000, 33.000000)" fill="#FFFFFF">
                <path d="M9.11332452,4 L4.89498318,4 L3.45987759,16.9081644 L2.69939802,17.0223026 C1.72870472,17.1679912 1,18.0070939 1,19 C1,20.1045695 1.8954305,21 3,21 C3.26160869,21 3.51412892,20.9502709 3.74786595,20.8550634 L4.37378515,20.6001096 L4.84375191,21.0858127 C5.4060587,21.6669479 6.17528378,22 7,22 C7.82467203,22 8.59372218,21.6669873 9.15480148,21.0864844 L9.62389045,20.6011563 L10.2494411,20.8546798 C10.4852307,20.9502408 10.7383196,21 11,21 C12.1045695,21 13,20.1045695 13,19 C13,18.0381859 12.315479,17.2171121 11.3837632,17.0365915 L10.6683888,16.8979872 L9.11332452,4 Z" id="Combined-Shape" stroke="#0959A7" stroke-width="2"></path>
                <rect id="Rectangle" x="3" y="0" width="9" height="7"></rect>
            </g>
            <path d="M40.0006857,41.9007792 C39.9712751,43.5304737 40.8916541,44.8749219 42.0559682,44.9028481 C43.2202823,44.9307744 44.1873723,43.6302103 44.2167829,42.0005157 C44.2444635,40.3708211 43.3240845,39.0283677 42.1615004,39.0004414 C40.9971863,38.9725152 40.0300963,40.2730793 40.0006857,41.9007792" id="Fill-26" fill="#0959A7"></path>
            <path d="M56.0006844,41.9017922 C55.9712743,43.5320196 56.8933668,44.874912 58.0559299,44.9028473 C59.220223,44.9307827 60.1872956,43.6317887 60.2167056,42.0015614 C60.2461157,40.3693386 59.3257533,39.0284416 58.1614602,39.0005063 C56.9971671,38.9705755 56.0300945,40.2715648 56.0006844,41.9017922" id="Fill-30" fill="#0959A7"></path>
            <path d="M47.7695312,39.5693359 C47.4929018,38.6811766 47.7695312,36.8355973 46.9217391,35.9604492 C46.073947,35.0853011 42.8562645,34.9223062 42.564209,33.9846191" id="Path-2" stroke="#0959A7" stroke-width="2" stroke-linecap="round" stroke-linejoin="round"></path>
            <path d="M57.7695312,39.5693359 C57.4929018,38.6811766 57.7695312,36.8355973 56.9217391,35.9604492 C56.073947,35.0853011 52.8562645,34.9223062 52.564209,33.9846191" id="Path-2" stroke="#0959A7" stroke-width="2" stroke-linecap="round" stroke-linejoin="round" transform="translate(55.166870, 36.776978) scale(-1, 1) translate(-55.166870, -36.776978) "></path>
        </g>
    </g>
</svg>