<?xml version="1.0" encoding="UTF-8" standalone="no"?>
<!DOCTYPE svg PUBLIC "-//W3C//DTD SVG 1.1//EN" "http://www.w3.org/Graphics/SVG/1.1/DTD/svg11.dtd">
<svg width="100%" height="100%" viewBox="0 0 4520 1000" version="1.1" xmlns="http://www.w3.org/2000/svg" xmlns:xlink="http://www.w3.org/1999/xlink" xml:space="preserve" xmlns:serif="http://www.serif.com/" style="fill-rule:evenodd;clip-rule:evenodd;stroke-linejoin:round;stroke-miterlimit:2;">
    <g transform="matrix(1,0,0,1,-0.004,1.13687e-13)">
        <g transform="matrix(1,0,0,1,-523.553,-607.753)">
            <g transform="matrix(1,0,0,1,1047.11,1200.98)">
                <path d="M0,-578.694L0,-271.022C0,-263.764 -2.309,-257.035 -6.251,-251.558L-8.181,-249.497L-8.198,-249.464L-8.363,-249.282L-10.557,-246.957L-10.573,-246.94L-10.606,-246.907L-12.189,-245.224L-118.398,-131.841L-176.458,-69.855L-179.84,-66.259C-182.957,-63.059 -186.256,-60.041 -189.737,-57.253C-189.605,-56.874 -189.473,-56.494 -189.341,-56.115L-250.436,9.105L-251.838,10.606C-254.445,13.046 -257.925,14.532 -261.768,14.532C-265.677,14.532 -269.224,12.997 -271.83,10.49L-271.863,10.457L-273.001,9.253L-273.034,9.22L-287.945,-6.73L-288.077,-6.862L-291.211,-10.194L-291.227,-10.211L-334.212,-56.098C-334.097,-56.477 -333.948,-56.857 -333.816,-57.253C-337.478,-60.206 -340.975,-63.405 -344.241,-66.803L-344.422,-67.002L-346.599,-69.31L-346.715,-69.442L-346.748,-69.475L-405.155,-131.825L-511.347,-245.175L-511.363,-245.192L-517.219,-251.443L-517.252,-251.476C-521.211,-256.968 -523.553,-263.731 -523.553,-271.022L-523.553,-578.694C-523.553,-586.727 -517.037,-593.226 -509.005,-593.226L-14.532,-593.226C-6.515,-593.226 0,-586.727 0,-578.694" style="fill:white;fill-rule:nonzero;"/>
            </g>
        </g>
        <g transform="matrix(1,0,0,1,-523.553,-607.753)">
            <g transform="matrix(1,0,0,1,3356.18,1178.36)">
                <path d="M0,-301.227C-15.077,-245.03 57.767,-227.716 96.496,-216.075C155.994,-198.188 210.325,-165.957 245.733,-112.915C245.844,-112.748 245.899,-112.637 245.955,-112.527C258.055,-90.325 264.882,-64.904 264.882,-37.817C264.885,157.993 -8.249,147.02 -125.562,71.581C-127.886,70.086 -130.383,68.294 -130.964,65.593C-131.603,62.617 -129.679,59.755 -127.856,57.318C-104.834,26.529 -81.812,-4.26 -58.791,-35.049C-16.115,-9.516 34.095,3.244 83.783,1.182C108.102,0.173 135.599,-6.6 146.958,-28.125C163.816,-60.07 132.103,-85.832 106.607,-98.096C46.922,-126.806 -29.51,-137.16 -80.599,-183.58C-146.622,-243.57 -129.914,-354.862 -63.771,-408.209C-48.895,-420.254 -31.8,-429.58 -13.149,-435.519C-12.483,-435.741 -11.873,-435.962 -11.262,-436.129C2.781,-440.403 17.324,-443.9 32.255,-446.509C104.358,-459.22 174.518,-450.117 234.076,-424.417C249.452,-417.812 264.05,-410.097 277.815,-401.327L269.323,-390.003L205.768,-305.412C200.218,-308.464 194.558,-311.294 188.787,-313.847C147.937,-331.914 17.493,-366.369 0,-301.227" style="fill:white;fill-rule:nonzero;"/>
            </g>
        </g>
        <g transform="matrix(1,0,0,1,-523.553,-607.753)">
            <g transform="matrix(1,0,0,1,2077.26,1272.32)">
                <path d="M0,-518.929C-38.577,-492.231 -70.937,-457.151 -94.583,-416.354C-101.632,-417.353 -108.848,-417.908 -116.231,-417.908C-199.379,-417.908 -266.82,-350.467 -266.82,-267.319L-266.82,24.923L-393.374,24.923L-393.374,-536.913L-266.82,-536.913L-266.82,-494.284C-223.302,-525.479 -169.961,-543.852 -112.345,-543.852C-72.214,-543.852 -34.136,-534.915 0,-518.929" style="fill:white;fill-rule:nonzero;"/>
            </g>
        </g>
        <g transform="matrix(1,0,0,1,-523.553,-607.753)">
            <g transform="matrix(1,0,0,1,2840.42,859.621)">
                <path d="M0,313.409C-43.272,313.409 -82.448,295.869 -110.806,267.512C-121.44,256.877 -130.553,244.721 -137.79,231.399C-138.996,229.18 -140.15,226.927 -141.251,224.642C-143.451,220.076 -145.437,215.386 -147.195,210.585C-150.71,200.985 -153.312,190.944 -154.897,180.569C-156.086,172.789 -156.703,164.819 -156.703,156.705C-156.703,143.182 -154.99,130.06 -151.77,117.543C-150.481,112.536 -148.952,107.626 -147.195,102.825C-145.437,98.025 -143.451,93.335 -141.251,88.767C-140.15,86.484 -138.996,84.231 -137.79,82.011C-135.377,77.57 -132.757,73.259 -129.941,69.091C-128.533,67.007 -127.076,64.958 -125.572,62.947C-121.06,56.914 -116.123,51.216 -110.806,45.899C-82.448,17.542 -43.272,0.002 0,0.002C43.273,0.002 82.448,17.541 110.806,45.899L198.653,-41.947C147.813,-92.787 77.579,-124.233 0,-124.233C-83.076,-124.233 -157.702,-88.148 -209.136,-30.827C-214.738,-24.583 -220.093,-18.112 -225.125,-11.384C-227.821,-7.778 -230.433,-4.107 -232.958,-0.369C-243.055,14.576 -251.752,30.547 -258.86,47.351C-260.637,51.554 -262.315,55.806 -263.89,60.109C-270.192,77.321 -274.858,95.321 -277.7,113.922C-279.832,127.871 -280.937,142.159 -280.937,156.705C-280.937,171.252 -279.832,185.539 -277.7,199.489C-274.858,218.09 -270.192,236.09 -263.89,253.301C-262.314,257.603 -260.637,261.857 -258.86,266.058C-251.752,282.864 -243.055,298.834 -232.958,313.78C-230.433,317.516 -227.821,321.189 -225.125,324.795C-220.093,331.523 -214.738,337.994 -209.136,344.237C-157.702,401.558 -83.076,437.642 0,437.642C77.579,437.642 147.813,406.198 198.653,355.358L110.806,267.512C82.448,295.869 43.273,313.409 0,313.409" style="fill:white;fill-rule:nonzero;"/>
            </g>
        </g>
        <g transform="matrix(1,0,0,1,-523.553,-607.753)">
            <g transform="matrix(0,-1,-1,0,3121.36,607.752)">
                <path d="M-63.819,-63.817C-99.064,-63.817 -127.635,-35.245 -127.635,0.001C-127.635,35.247 -99.064,63.819 -63.819,63.819C-28.572,63.819 -0.001,35.247 -0.001,0.001C-0.001,-35.245 -28.572,-63.817 -63.819,-63.817" style="fill:white;fill-rule:nonzero;"/>
            </g>
        </g>
        <g transform="matrix(1,0,0,1,-523.553,-607.753)">
            <g transform="matrix(1,0,0,1,2259.77,1173.03)">
                <path d="M0,-313.407C49.885,-313.407 94.292,-290.069 122.99,-253.747L-122.991,-253.747C-94.292,-290.069 -49.885,-313.407 0,-313.407M0,0C-76.073,0 -139.465,-54.215 -153.697,-126.11L-156.704,-126.11L279.25,-126.11C280.339,-136.163 280.937,-146.362 280.937,-156.704C280.937,-311.861 155.157,-437.641 0,-437.641C-155.157,-437.641 -280.938,-311.861 -280.938,-156.704C-280.938,-1.547 -155.157,124.234 0,124.234C123.697,124.234 228.644,44.255 266.149,-66.784L141.754,-89.945C116.687,-36.799 62.659,0 0,0" style="fill:white;fill-rule:nonzero;"/>
            </g>
        </g>
        <g transform="matrix(1,0,0,1,-523.553,-607.753)">
            <g transform="matrix(1,0,0,1,3922.03,1170.93)">
                <path d="M0,-313.407C49.885,-313.407 94.292,-290.069 122.99,-253.747L-122.991,-253.747C-94.292,-290.069 -49.885,-313.407 0,-313.407M0,0C-76.073,0 -139.465,-54.216 -153.697,-126.11L-156.704,-126.11L279.249,-126.11C280.338,-136.163 280.937,-146.362 280.937,-156.704C280.937,-311.861 155.157,-437.641 0,-437.641C-155.158,-437.641 -280.938,-311.861 -280.938,-156.704C-280.938,-1.547 -155.158,124.234 0,124.234C123.696,124.234 228.643,44.254 266.149,-66.784L141.754,-89.945C116.687,-36.799 62.659,0 0,0" style="fill:white;fill-rule:nonzero;"/>
            </g>
        </g>
        <g transform="matrix(1,0,0,1,-523.553,-607.753)">
            <g transform="matrix(1,0,0,1,1449.25,986.761)">
                <path d="M0,-67.463L-155.724,-67.463L-155.724,-251.356L0,-251.356C50.789,-251.356 91.974,-210.226 91.974,-159.437C91.974,-108.649 50.789,-67.463 0,-67.463M0,-377.899L0,-377.966L-283.36,-377.966L-283.36,310.503L-155.724,310.503L-155.724,59.024L-5.346,59.024C-4.449,59.035 -3.564,59.092 -2.664,59.092C-1.765,59.092 -0.88,59.035 0.016,59.024L2.772,59.024L2.772,58.954C120.924,56.06 215.865,-40.534 215.865,-159.437C215.865,-279.215 119.438,-376.464 0,-377.899" style="fill:white;fill-rule:nonzero;"/>
            </g>
        </g>
        <g transform="matrix(1,0,0,1,-523.553,-607.753)">
            <g transform="matrix(-1,0,0,1,6242.72,-119.856)">
                <rect x="3057.54" y="918.935" width="127.636" height="497.496" style="fill:white;"/>
            </g>
        </g>
        <g transform="matrix(1,0,0,1,-523.553,-607.753)">
            <g transform="matrix(-1,0,0,1,8600.2,-312.598)">
                <rect x="4241.79" y="920.351" width="116.627" height="687.406" style="fill:white;"/>
            </g>
        </g>
        <g transform="matrix(1,0,0,1,-523.553,-607.753)">
            <g transform="matrix(1,0,0,1,4724.52,1222.98)">
                <path d="M0,-102.829L-180.357,-487.597L-337.057,-487.597L-73.41,65.801L-216.593,384.768L-65.82,384.768L318.672,-487.597L170.741,-487.597L0,-102.829" style="fill:white;fill-rule:nonzero;"/>
            </g>
        </g>
    </g>
</svg>
